<svg xmlns="http://www.w3.org/2000/svg" xmlns:xlink="http://www.w3.org/1999/xlink" width="500" zoomAndPan="magnify" viewBox="0 0 375 374.999991" height="500" preserveAspectRatio="xMidYMid meet" version="1.0"><defs><clipPath id="id1"><path d="M 198 285.625 L 323 285.625 L 323 374.992188 L 198 374.992188 Z M 198 285.625 " clip-rule="nonzero"/></clipPath><clipPath id="id2"><path d="M 197.175781 284.132812 L 320 284.132812 L 320 374.992188 L 197.175781 374.992188 Z M 197.175781 284.132812 " clip-rule="nonzero"/></clipPath><clipPath id="id3"><path d="M 261 202 L 364.851562 202 L 364.851562 311 L 261 311 Z M 261 202 " clip-rule="nonzero"/></clipPath><clipPath id="id4"><path d="M 260.578125 202.074219 L 364.480469 202.074219 L 364.480469 311.738281 L 260.578125 311.738281 Z M 260.578125 202.074219 " clip-rule="nonzero"/></clipPath></defs><path fill="rgb(6.269836%, 5.879211%, 5.099487%)" d="M 109.730469 122.980469 L 114.984375 124.375 L 114.792969 125.09375 L 109.539062 123.703125 Z M 85.777344 138.332031 L 86.464844 138.621094 L 84.664062 142.894531 L 83.976562 142.605469 Z M 78.191406 134.515625 L 78.769531 134.984375 L 75.945312 138.496094 L 75.363281 138.03125 Z M 73.84375 129.75 L 74.226562 130.386719 L 70.195312 132.808594 L 69.8125 132.167969 Z M 64.917969 126.574219 L 69.878906 124.816406 L 70.128906 125.519531 L 65.164062 127.277344 Z M 91.703125 138.09375 L 92.445312 138.09375 L 92.445312 142.75 L 91.703125 142.75 Z M 108.160156 127.433594 L 113.144531 129.730469 L 112.832031 130.40625 L 107.851562 128.113281 Z M 99.28125 136.066406 L 100.941406 140.183594 L 100.25 140.460938 L 98.59375 136.347656 Z M 104.015625 132.835938 L 107.054688 136.695312 L 106.46875 137.15625 L 103.429688 133.296875 Z M 121.582031 195.324219 L 117.773438 201.328125 L 117.144531 200.925781 L 120.953125 194.925781 Z M 153.003906 202.796875 C 152.726562 204.421875 139.390625 241.011719 123.976562 253.5 L 123.507812 252.917969 C 138.433594 240.828125 152.007812 204.21875 152.269531 202.671875 C 152.5 201.328125 148.628906 184.023438 145.972656 172.722656 L 145.960938 172.675781 L 145.964844 172.625 C 146.070312 169.335938 146.953125 143.4375 147.558594 136.585938 L 136.28125 152.929688 C 135.734375 155.191406 127.441406 189.484375 124.890625 193.667969 C 125.019531 195 125.464844 199.480469 125.9375 204.617188 C 129.597656 190.777344 144.398438 190.605469 144.566406 190.605469 L 144.566406 191.351562 C 143.910156 191.351562 128.550781 191.539062 126.167969 207.144531 C 126.179688 207.21875 126.183594 207.300781 126.191406 207.375 C 133.132812 195.910156 143.789062 200.738281 143.898438 200.789062 L 143.582031 201.464844 C 143.144531 201.257812 132.878906 196.640625 126.308594 208.675781 C 126.957031 215.957031 127.542969 223.261719 127.347656 224.148438 C 126.941406 225.964844 120.992188 229.566406 120.3125 229.972656 L 119.929688 229.332031 C 122.382812 227.867188 126.363281 225.121094 126.617188 223.988281 C 126.78125 223.25 126.257812 216.492188 125.558594 208.714844 L 125.460938 208.664062 C 125.492188 208.613281 125.515625 208.566406 125.542969 208.519531 C 125.097656 203.511719 124.582031 198.101562 124.136719 193.613281 L 124.121094 193.476562 L 124.199219 193.363281 C 126.605469 189.828125 135.480469 153.058594 135.570312 152.6875 L 135.625 152.5625 L 147.675781 135.101562 C 145.796875 133.503906 124.230469 125.21875 109.839844 119.917969 L 110.097656 119.21875 C 118.917969 122.46875 147.75 133.203125 148.464844 134.894531 C 148.515625 135.019531 148.515625 135.152344 148.464844 135.269531 C 148.058594 136.371094 147.191406 158.179688 146.710938 172.601562 C 147.441406 175.714844 153.332031 200.882812 153.003906 202.796875 Z M 58.152344 207.558594 C 53.691406 208.980469 49.675781 208.667969 46.214844 206.605469 C 38.464844 202 35.753906 190.050781 35.425781 188.460938 C 39.601562 181.429688 44.347656 176.988281 45.054688 176.347656 C 51.9375 175.726562 57.359375 177.09375 61.167969 180.398438 C 65.964844 184.5625 66.605469 190.539062 66.675781 191.355469 C 66.238281 192.234375 62.78125 199.140625 58.152344 207.558594 Z M 61.664062 179.839844 C 57.671875 176.371094 52.019531 174.949219 44.859375 175.613281 L 44.742188 175.625 L 44.652344 175.707031 C 44.5625 175.785156 40.195312 179.65625 35.972656 186.171875 C 33.125 186.835938 26.015625 198.121094 24.582031 200.441406 L 25.214844 200.832031 C 28.058594 196.242188 32.777344 189.363281 35.1875 187.421875 C 31.257812 193.828125 27.699219 202.496094 28.144531 212.464844 L 28.890625 212.433594 C 28.488281 203.449219 31.40625 195.539062 34.871094 189.421875 C 35.628906 192.675781 38.527344 202.902344 45.832031 207.246094 C 48.003906 208.539062 50.375 209.1875 52.917969 209.1875 C 54.433594 209.1875 56.011719 208.945312 57.644531 208.484375 C 49.640625 222.96875 38.4375 241.359375 33.074219 241.566406 C 23.734375 241.9375 19.375 233.621094 15.351562 220.109375 C 11.070312 205.734375 22.804688 187.878906 22.921875 187.703125 L 22.996094 187.59375 L 22.984375 187.464844 C 21.761719 171.792969 19.839844 141.664062 21.15625 137.707031 C 37.882812 138.046875 46.101562 172.375 46.183594 172.722656 L 46.910156 172.554688 C 46.574219 171.121094 38.640625 137.980469 21.695312 136.976562 C 25.527344 133.753906 50.414062 125.367188 67.160156 120.234375 L 66.941406 119.519531 C 62.398438 120.914062 22.484375 133.242188 20.566406 137.164062 C 18.667969 141.03125 21.980469 184.191406 22.230469 187.398438 C 21.238281 188.9375 10.4375 206.210938 14.636719 220.320312 C 18.675781 233.882812 23.101562 242.324219 32.484375 242.324219 C 32.6875 242.324219 32.894531 242.320312 33.101562 242.3125 C 42.359375 241.957031 66.367188 193.652344 67.386719 191.597656 L 67.429688 191.511719 L 67.425781 191.414062 C 67.410156 191.136719 67.039062 184.511719 61.664062 179.839844 " fill-opacity="1" fill-rule="nonzero"/><path fill="rgb(19.60907%, 36.468506%, 47.44873%)" d="M 76.128906 111.496094 L 67.054688 119.878906 C 67.054688 119.878906 77.59375 143.433594 94.414062 138.035156 C 111.238281 132.640625 109.96875 119.570312 109.96875 119.570312 L 100.371094 113.992188 Z M 54.988281 172.066406 C 54.988281 172.066406 52.417969 166.066406 47.277344 170.734375 C 44.648438 173.121094 43.066406 175.820312 42.144531 177.886719 C 41.265625 179.863281 41.589844 182.164062 42.96875 183.839844 C 46.84375 188.542969 55.664062 197.570312 62.585938 192.160156 C 71.726562 185.019531 69.558594 181.78125 54.988281 172.066406 Z M 118.792969 236.511719 C 131.238281 250.480469 132.636719 328.269531 132.636719 328.269531 L 46.226562 349.902344 C 46.226562 349.902344 37.023438 293.398438 36.261719 274.308594 C 35.5 255.21875 47.179688 236.511719 47.179688 236.511719 L 118.792969 236.511719 " fill-opacity="1" fill-rule="nonzero"/><path fill="rgb(92.939758%, 66.668701%, 59.609985%)" d="M 59.71875 186.433594 L 66.53125 173.671875 C 88.582031 163.957031 93.621094 156.148438 91.8125 155.175781 C 90.003906 154.203125 79.972656 160.054688 79.972656 160.054688 C 94.179688 151.820312 98.011719 149.964844 96.300781 147.71875 C 94.589844 145.472656 88.765625 149.480469 88.765625 149.480469 C 97.144531 145.195312 98.03125 142.480469 96.003906 141.671875 C 93.890625 140.828125 74.667969 149.480469 74.667969 149.480469 C 74.667969 149.480469 85.144531 139.574219 87.621094 136.953125 C 90.097656 134.328125 87.238281 130.8125 84.671875 133.386719 C 82.097656 135.957031 62.386719 152.335938 62.386719 152.335938 C 61.71875 151.671875 64.765625 145.671875 66.101562 141.859375 C 67.433594 138.050781 63.910156 132.050781 62.097656 136.953125 C 60.289062 141.851562 54.671875 150.621094 53.625 154.339844 C 52.578125 158.050781 53.625 169.578125 53.625 169.578125 L 48.578125 177.863281 C 52.769531 187.957031 59.71875 186.433594 59.71875 186.433594 Z M 112.894531 91.191406 C 112.023438 94.808594 108.21875 109.949219 105.671875 111.4375 C 104.605469 112.070312 101.933594 111.808594 101.175781 111.972656 C 99.863281 112.253906 100.578125 113.882812 100.316406 115.214844 C 100.136719 116.152344 99.5625 116.972656 98.742188 117.464844 C 95.691406 119.285156 87.628906 122.492188 77.59375 113.734375 C 76.945312 113.167969 76.523438 112.378906 76.433594 111.519531 L 74.96875 97.902344 C 74.828125 96.59375 73.941406 95.457031 72.6875 95.0625 C 71.023438 94.53125 68.578125 93.125 66.273438 89.398438 C 63.863281 85.496094 65.316406 82.3125 67.816406 81.066406 C 67.816406 81.066406 76.417969 86.355469 75.277344 82.640625 C 74.132812 78.925781 77.460938 64.636719 77.460938 64.636719 L 75.277344 62.355469 L 78.890625 63.683594 C 88.226562 57.878906 105.074219 61.976562 108.3125 62.640625 C 111.558594 63.304688 112.371094 69.605469 112.371094 69.605469 L 112.363281 69.617188 C 112.550781 71.070312 112.597656 72.5625 112.402344 74.078125 C 111.425781 81.5625 112.492188 87.691406 112.917969 89.714844 C 113.023438 90.207031 113.011719 90.707031 112.894531 91.191406 " fill-opacity="1" fill-rule="nonzero"/><path fill="rgb(100%, 100%, 100%)" d="M 106.761719 97.480469 C 106.761719 97.480469 101.398438 101.035156 89.269531 98.117188 C 89.269531 98.117188 95.9375 104.65625 101.015625 103.382812 C 106.097656 102.117188 106.761719 97.480469 106.761719 97.480469 Z M 93.144531 81.71875 C 93.144531 81.71875 88.15625 78.003906 81.71875 80.320312 C 81.71875 80.320312 82.539062 84.550781 86.796875 85.277344 C 93.144531 86.355469 93.144531 81.71875 93.144531 81.71875 Z M 106.761719 84.511719 C 102.605469 85.464844 102.539062 81.59375 102.539062 81.59375 C 105.777344 77.65625 110.980469 78.992188 110.980469 78.992188 C 110.980469 78.992188 110.921875 83.558594 106.761719 84.511719 " fill-opacity="1" fill-rule="nonzero"/><path fill="rgb(6.269836%, 5.879211%, 5.099487%)" d="M 90.691406 159.125 L 90.304688 158.484375 C 90.085938 158.617188 89.367188 158.953125 88.972656 158.769531 C 88.90625 158.738281 88.714844 158.648438 88.640625 158.195312 C 88.457031 157.085938 91.183594 156.257812 92.152344 156.050781 L 92 155.320312 C 91.542969 155.417969 87.570312 156.3125 87.90625 158.320312 C 88.019531 159.015625 88.378906 159.316406 88.660156 159.445312 C 88.847656 159.53125 89.050781 159.566406 89.253906 159.566406 C 89.929688 159.566406 90.597656 159.183594 90.691406 159.125 Z M 93.960938 151.367188 C 93.933594 151.367188 93.261719 151.351562 93.261719 150.210938 C 93.261719 149.210938 95.554688 148.46875 96.355469 148.289062 L 96.1875 147.558594 C 95.8125 147.644531 92.515625 148.441406 92.515625 150.210938 C 92.515625 151.707031 93.457031 152.113281 93.957031 152.113281 Z M 94.246094 146.5625 L 94.21875 145.816406 C 94.210938 145.816406 93.558594 145.835938 93.1875 145.476562 C 93.015625 145.3125 92.929688 145.082031 92.929688 144.78125 C 92.929688 143.953125 94.949219 142.933594 96.386719 142.46875 L 96.15625 141.761719 C 95.75 141.890625 92.183594 143.085938 92.183594 144.78125 C 92.183594 145.289062 92.347656 145.707031 92.671875 146.019531 C 93.203125 146.527344 93.996094 146.5625 94.199219 146.5625 C 94.226562 146.5625 94.242188 146.5625 94.246094 146.5625 Z M 87.378906 137.648438 L 87.226562 136.917969 C 87.171875 136.933594 85.847656 137.195312 85.484375 136.136719 C 85.199219 135.316406 86.667969 133.785156 87.660156 133.011719 L 87.203125 132.425781 C 86.894531 132.660156 84.230469 134.792969 84.777344 136.378906 C 85.140625 137.429688 86.101562 137.703125 86.835938 137.703125 C 87.039062 137.703125 87.226562 137.679688 87.378906 137.648438 Z M 63.554688 139.980469 C 65.566406 138.390625 64.152344 135.105469 64.089844 134.964844 L 63.40625 135.265625 C 63.417969 135.292969 64.65625 138.160156 63.089844 139.394531 C 62.542969 139.828125 62.066406 140.015625 61.71875 139.929688 C 61.398438 139.847656 61.261719 139.550781 61.257812 139.542969 L 60.570312 139.832031 C 60.671875 140.066406 60.984375 140.507812 61.527344 140.648438 C 61.648438 140.679688 61.769531 140.695312 61.894531 140.695312 C 62.394531 140.695312 62.949219 140.457031 63.554688 139.980469 Z M 66.710938 173.996094 L 66.351562 173.34375 L 64.777344 174.214844 L 65.136719 174.867188 Z M 93.867188 152.257812 L 93.480469 151.621094 L 76.761719 161.84375 L 77.148438 162.480469 Z M 92.261719 147.960938 L 91.886719 147.320312 L 74.480469 157.585938 L 74.859375 158.230469 Z M 71.988281 152.226562 L 71.507812 151.65625 L 74.429688 149.195312 L 74.910156 149.765625 L 71.988281 152.226562 " fill-opacity="1" fill-rule="nonzero"/><path fill="rgb(6.269836%, 5.879211%, 5.099487%)" d="M 129.128906 272.726562 C 125.605469 244.507812 119.34375 236.597656 119.078125 236.277344 L 118.503906 236.746094 C 118.566406 236.828125 124.890625 244.8125 128.390625 272.820312 C 131.902344 300.902344 131.875 327.339844 131.875 327.605469 L 132.621094 327.605469 C 132.621094 327.34375 132.648438 300.863281 129.128906 272.726562 Z M 62.050781 238.390625 L 46.28125 257.503906 L 47.945312 260.058594 L 64.339844 240.347656 Z M 61.960938 237.332031 L 65.382812 240.257812 L 47.875 261.3125 L 45.351562 257.453125 Z M 114.445312 279.601562 L 92.140625 296.117188 L 111.785156 287.535156 L 112.085938 288.21875 L 89.667969 298.015625 L 93.347656 338.164062 L 92.605469 338.234375 L 88.878906 297.605469 L 98.613281 290.398438 L 98.613281 241.589844 L 99.359375 241.589844 L 99.359375 289.847656 L 114 279.003906 L 114.445312 279.601562 " fill-opacity="1" fill-rule="nonzero"/><path fill="rgb(100%, 100%, 100%)" d="M 102.890625 229.652344 L 102.890625 241.453125 C 97.347656 241.910156 91.5 242.003906 85.75 241.902344 L 85.75 229.652344 L 102.890625 229.652344 " fill-opacity="1" fill-rule="nonzero"/><path fill="rgb(6.269836%, 5.879211%, 5.099487%)" d="M 100.316406 231.875 L 89.269531 231.875 L 89.269531 239.210938 L 100.316406 239.210938 Z M 102.890625 229.652344 L 102.890625 241.453125 C 109.238281 240.933594 115.183594 239.953125 120.121094 238.3125 L 120.121094 229.652344 Z M 47.058594 229.652344 L 85.75 229.652344 L 85.75 241.902344 C 65.332031 241.484375 46.140625 238.3125 46.140625 238.3125 L 47.058594 229.652344 " fill-opacity="1" fill-rule="nonzero"/><path fill="rgb(6.269836%, 5.879211%, 5.099487%)" d="M 96.246094 129.925781 C 96.246094 129.144531 95.796875 128.488281 95.257812 128.488281 C 94.722656 128.488281 94.269531 129.144531 94.269531 129.925781 C 94.269531 130.703125 94.722656 131.359375 95.257812 131.359375 C 95.796875 131.359375 96.246094 130.703125 96.246094 129.925781 Z M 96.992188 129.925781 C 96.992188 131.128906 96.214844 132.105469 95.257812 132.105469 C 94.304688 132.105469 93.523438 131.128906 93.523438 129.925781 C 93.523438 128.722656 94.304688 127.742188 95.257812 127.742188 C 96.214844 127.742188 96.992188 128.722656 96.992188 129.925781 Z M 106.816406 118.035156 L 102.136719 133.210938 L 91.320312 121.691406 L 93.671875 138.210938 L 92.933594 138.316406 L 90.554688 121.609375 L 81.390625 135.671875 L 68.785156 118.667969 L 69.382812 118.226562 L 81.347656 134.367188 L 90.730469 119.976562 L 101.800781 131.765625 L 106.105469 117.816406 L 106.816406 118.035156 " fill-opacity="1" fill-rule="nonzero"/><path fill="rgb(6.269836%, 5.879211%, 5.099487%)" d="M 116.359375 61.171875 C 115.144531 65.414062 112.371094 69.605469 112.371094 69.605469 C 112.371094 69.605469 111.558594 63.304688 108.3125 62.640625 C 105.074219 61.976562 88.226562 57.878906 78.890625 63.683594 L 75.277344 62.355469 L 77.460938 64.636719 C 77.460938 64.636719 74.132812 78.925781 75.277344 82.640625 C 76.417969 86.355469 67.816406 81.066406 67.816406 81.066406 C 65.40625 76.546875 60.886719 66.863281 63.46875 62.066406 C 66.792969 55.871094 73.179688 58.261719 73.546875 58.402344 C 73.320312 58.238281 71.015625 56.253906 79.84375 49.875 C 83.648438 47.128906 88.105469 46.828125 92.746094 47.535156 C 82.421875 50.414062 77.953125 60.082031 77.902344 60.203125 L 78.582031 60.507812 C 78.636719 60.386719 83.449219 50.007812 94.621094 47.867188 C 97.167969 48.382812 99.753906 49.144531 102.296875 49.914062 C 92.308594 52.0625 84.429688 57.304688 84.316406 57.378906 L 84.734375 57.996094 C 84.851562 57.917969 93.339844 52.269531 103.800781 50.367188 C 106.773438 51.269531 109.671875 52.117188 112.371094 52.546875 C 116.863281 53.253906 117.410156 56.628906 116.613281 60.1875 C 115.59375 58.777344 114.316406 57.675781 112.78125 56.898438 C 106.25 53.578125 97.527344 57.191406 97.160156 57.34375 L 97.449219 58.03125 C 97.535156 57.992188 106.222656 54.402344 112.445312 57.5625 C 114.054688 58.378906 115.351562 59.597656 116.359375 61.171875 Z M 90.59375 98.796875 C 92.644531 100.527344 97.273438 103.933594 100.925781 103.023438 C 104.507812 102.128906 105.777344 99.519531 106.199219 98.199219 C 104.40625 99.023438 99.433594 100.648438 90.59375 98.796875 Z M 99.628906 103.925781 C 94.71875 103.925781 89.261719 98.628906 89.011719 98.382812 L 88.046875 97.4375 L 89.359375 97.75 C 101.1875 100.601562 106.503906 97.203125 106.554688 97.167969 L 107.25 96.710938 L 107.128906 97.53125 C 107.125 97.582031 106.371094 102.433594 101.105469 103.746094 C 100.625 103.867188 100.132812 103.925781 99.628906 103.925781 Z M 96.242188 94.574219 L 95.953125 93.882812 L 98.367188 92.867188 L 98.652344 93.554688 Z M 100.777344 94.832031 L 100.304688 94.257812 C 101.253906 93.464844 102.769531 91.910156 102.769531 91.117188 C 102.769531 90.261719 100.773438 86.390625 99.515625 84.144531 L 100.167969 83.78125 C 100.511719 84.394531 103.515625 89.789062 103.515625 91.117188 C 103.515625 92.519531 101.058594 94.597656 100.777344 94.832031 Z M 100.484375 115.9375 L 99.742188 115.835938 L 100.179688 112.613281 C 98.296875 112.253906 89.597656 110.53125 85.113281 108.40625 C 80.058594 106.007812 78.195312 98.628906 78.117188 98.316406 L 78.84375 98.136719 C 78.859375 98.210938 80.703125 105.484375 85.433594 107.734375 C 90.28125 110.03125 100.558594 111.925781 100.664062 111.945312 L 101.015625 112.007812 Z M 73.09375 87.835938 C 70.691406 84.316406 67.105469 85.765625 67.070312 85.78125 L 66.78125 85.09375 C 66.824219 85.078125 70.964844 83.398438 73.707031 87.414062 Z M 109.949219 72.339844 L 111.152344 74.628906 C 106.539062 73.082031 102.351562 76.324219 102.351562 76.324219 L 102.351562 74.289062 C 105.902344 70.355469 109.949219 72.339844 109.949219 72.339844 Z M 93.023438 76.578125 C 90.875 74.289062 81.71875 75.625 81.71875 75.625 L 83.621094 73.464844 C 90.605469 70.925781 93.367188 74.925781 93.367188 74.925781 Z M 86.332031 85.179688 C 87.996094 78.863281 93.023438 82.5 93.023438 82.5 C 91.921875 86.769531 86.332031 85.179688 86.332031 85.179688 Z M 81.71875 80.609375 L 81.71875 79.816406 C 88.195312 77.121094 93.367188 81.71875 93.367188 81.71875 C 87.019531 78.097656 81.71875 80.609375 81.71875 80.609375 Z M 111.363281 78.773438 C 111.363281 78.773438 110.15625 77.71875 107.425781 78.324219 C 104.699219 78.925781 102.351562 81.496094 102.351562 81.496094 C 102.351562 81.496094 107.746094 78.128906 111.109375 79.277344 Z M 105.269531 84.652344 C 105.746094 78.988281 110.671875 80.742188 110.671875 80.742188 C 109.628906 84.972656 105.269531 84.652344 105.269531 84.652344 " fill-opacity="1" fill-rule="nonzero"/><path fill="rgb(97.648621%, 63.529968%, 42.349243%)" d="M 177.613281 161.363281 C 167.28125 159.519531 159.957031 142.195312 156.78125 133.066406 C 155.917969 135.527344 155.355469 138.234375 155.136719 141.210938 C 152.472656 177.402344 192.203125 226.734375 192.203125 226.734375 L 195.65625 225.601562 Z M 332.296875 212.238281 L 311.125 221.589844 C 311.125 221.589844 290.546875 200.847656 285.984375 188.839844 C 285.984375 188.839844 275.234375 183.511719 267.917969 178.789062 C 270.144531 164 283.066406 156.9375 291.636719 153.84375 C 299.207031 166.078125 305.214844 177.117188 305.214844 177.117188 C 305.214844 177.117188 324.527344 190.324219 332.296875 212.238281 " fill-opacity="1" fill-rule="nonzero"/><path fill="rgb(6.269836%, 5.879211%, 5.099487%)" d="M 286.222656 81.988281 C 282.90625 88.238281 279.226562 90.257812 277.277344 90.90625 C 275.296875 86.855469 283.5625 88.699219 283.503906 76.617188 C 283.484375 72.691406 282.714844 68.894531 281.359375 65.515625 C 284.769531 69.261719 289.425781 75.949219 286.222656 81.988281 Z M 243.429688 59.1875 L 242.6875 59.273438 C 241.953125 52.679688 248.847656 50.402344 248.917969 50.378906 L 249.144531 51.089844 C 248.882812 51.175781 242.765625 53.210938 243.429688 59.1875 Z M 238.515625 58.777344 L 237.792969 58.589844 C 237.800781 58.554688 238.667969 55.066406 236.621094 52.101562 C 235.023438 49.792969 232.109375 48.390625 227.960938 47.929688 L 228.042969 47.191406 C 232.421875 47.671875 235.515625 49.183594 237.238281 51.6875 C 239.476562 54.933594 238.558594 58.621094 238.515625 58.777344 Z M 208.183594 48.1875 C 209.78125 46.234375 212.132812 44.339844 215.566406 42.824219 C 225.152344 38.59375 229.726562 42.371094 231.320312 44.328125 C 229.976562 44.449219 228.613281 44.339844 227.277344 43.980469 C 221.394531 42.378906 213.921875 44.039062 208.183594 48.1875 Z M 194.746094 87.046875 C 190.683594 91.53125 189.667969 96.667969 189.917969 101.246094 C 189.664062 99.746094 189.570312 98.207031 189.640625 96.664062 C 189.832031 92.519531 191.246094 88.949219 193.328125 87.34375 C 196.46875 84.925781 198.828125 81.136719 200.171875 78.589844 C 199.722656 80.707031 198.277344 83.152344 194.746094 87.046875 Z M 280.433594 63.457031 C 277.421875 57.429688 272.4375 53.179688 266.570312 52.832031 C 256.964844 52.257812 259.316406 46.164062 249.03125 41.976562 C 243.523438 39.726562 239.015625 41.09375 236.015625 42.839844 C 234.808594 43.546875 233.503906 43.996094 232.160156 44.222656 C 230.671875 42.269531 225.734375 37.523438 215.265625 42.140625 C 210.464844 44.257812 207.699219 47.113281 206.121094 49.859375 C 202.65625 52.992188 200.125 57.167969 199.480469 62.164062 C 198.460938 70.074219 200.203125 73.378906 200.328125 76.59375 C 199.335938 78.703125 196.652344 83.84375 192.875 86.753906 C 190.625 88.488281 189.097656 92.273438 188.894531 96.632812 C 188.726562 100.273438 189.421875 103.808594 190.859375 106.964844 C 191.988281 111.117188 193.675781 113.972656 193.675781 113.972656 L 201.257812 115.917969 C 199.320312 111.546875 193.160156 96.121094 200.660156 91.746094 C 208.976562 86.894531 212.417969 76.15625 212.632812 70.53125 C 212.667969 69.578125 212.640625 68.5625 212.613281 67.488281 C 212.476562 62.164062 212.304688 55.535156 220.378906 52.042969 C 223.054688 50.886719 225.332031 50.855469 227.140625 51.957031 C 230.664062 54.097656 231.101562 59.714844 231.117188 59.949219 L 230.375 60.003906 C 230.371094 59.949219 229.945312 54.53125 226.75 52.59375 C 225.160156 51.628906 223.117188 51.671875 220.675781 52.726562 C 213.0625 56.019531 213.222656 62.101562 213.359375 67.472656 C 213.386719 68.554688 213.414062 69.582031 213.378906 70.558594 C 213.15625 76.34375 209.609375 87.386719 201.035156 92.390625 C 193.824219 96.597656 200.714844 112.898438 202.1875 116.15625 L 205.695312 117.058594 C 205.230469 112.519531 204.585938 104.496094 205.304688 100.46875 C 206.359375 94.550781 212.921875 94.179688 212.984375 94.175781 L 213.019531 94.917969 C 212.773438 94.933594 206.988281 95.273438 206.039062 100.597656 C 205.328125 104.570312 206.011719 112.804688 206.464844 117.257812 L 269 133.304688 C 268.019531 129.894531 266.039062 121.9375 266.199219 113.679688 C 266.324219 106.945312 269.253906 104.359375 271.390625 102.464844 C 272.828125 101.195312 273.867188 100.277344 273.800781 98.609375 C 273.722656 96.804688 272.863281 95.535156 271.863281 94.058594 C 270.429688 91.941406 268.804688 89.542969 269.324219 85.003906 C 269.640625 82.261719 271.070312 79.886719 272.457031 77.589844 C 274.984375 73.394531 277.375 69.433594 273.382812 63.417969 C 271.964844 61.273438 270.050781 59.980469 267.703125 59.574219 C 261.464844 58.488281 254.078125 63.929688 254.007812 63.984375 L 253.558594 63.386719 C 253.855469 63.167969 260.519531 58.269531 266.796875 58.722656 C 257.433594 54.710938 247.289062 60.644531 247.179688 60.714844 L 246.796875 60.070312 C 246.917969 60 259.191406 52.792969 269.511719 59.300781 C 271.308594 59.980469 272.816406 61.21875 274.007812 63.007812 C 278.253906 69.414062 275.632812 73.765625 273.09375 77.972656 C 271.75 80.203125 270.363281 82.511719 270.066406 85.085938 C 269.578125 89.351562 271.054688 91.53125 272.484375 93.640625 C 273.5 95.144531 274.460938 96.5625 274.546875 98.578125 C 274.628906 100.601562 273.355469 101.726562 271.886719 103.027344 C 269.738281 104.925781 267.066406 107.285156 266.945312 113.695312 C 266.78125 122.226562 268.929688 130.4375 269.839844 133.519531 L 275.316406 134.925781 C 275.316406 134.925781 268.648438 123.304688 277.597656 114.851562 C 286.261719 106.671875 280.132812 95.964844 277.644531 91.589844 C 279.777344 90.859375 283.5 88.710938 286.878906 82.339844 C 290.867188 74.824219 283.816406 66.726562 280.433594 63.457031 " fill-opacity="1" fill-rule="nonzero"/><path fill="rgb(100%, 100%, 100%)" d="M 280.078125 227.808594 L 230.261719 216.640625 L 237.835938 198.542969 C 237.835938 198.542969 240.527344 183.226562 233.730469 183.078125 C 230.496094 183.003906 226.179688 186.292969 225.035156 193.878906 C 223.777344 202.214844 225.859375 214.925781 225.859375 214.925781 L 198.183594 224.769531 L 195.65625 225.601562 L 177.613281 161.363281 C 167.28125 159.519531 159.957031 142.195312 156.78125 133.066406 C 166.222656 105.621094 211.128906 108.828125 211.128906 108.828125 L 252.820312 117.945312 C 252.820312 117.945312 269.605469 121.59375 281.214844 137.972656 C 284.746094 142.949219 288.339844 148.507812 291.636719 153.84375 C 283.066406 156.9375 270.144531 164 267.917969 178.789062 C 265.257812 177.070312 263.054688 175.429688 261.976562 174.164062 L 252.207031 192.066406 C 252.207031 192.066406 273.789062 210.40625 280.078125 227.808594 " fill-opacity="1" fill-rule="nonzero"/><path fill="rgb(19.60907%, 36.468506%, 47.44873%)" d="M 223.035156 182.066406 L 202.179688 172.765625 L 213.601562 141.398438 L 229.324219 145.6875 L 223.035156 182.066406 " fill-opacity="1" fill-rule="nonzero"/><path fill="rgb(6.269836%, 5.879211%, 5.099487%)" d="M 252.023438 191.621094 L 248.761719 190.621094 L 248.542969 191.332031 L 252.023438 192.398438 C 253.128906 193.351562 273.160156 210.757812 279.488281 227.292969 L 230.777344 216.375 L 238.179688 198.6875 L 238.199219 198.605469 C 238.277344 198.179688 240.007812 188.082031 236.828125 184.207031 C 236.035156 183.238281 234.992188 182.734375 233.738281 182.703125 C 230.070312 182.644531 225.78125 186.410156 224.667969 193.820312 C 223.519531 201.398438 225.136719 212.675781 225.445312 214.679688 L 198.070312 224.410156 L 195.910156 225.125 L 177.972656 161.261719 C 174.085938 146.222656 191.027344 133.492188 191.195312 133.367188 L 190.753906 132.765625 C 190.582031 132.894531 173.6875 145.597656 177.125 160.871094 C 175.710938 160.535156 174.351562 159.917969 173.054688 159.058594 L 176.054688 151.136719 L 175.359375 150.871094 L 172.425781 158.621094 C 169.914062 156.792969 167.640625 154.109375 165.632812 151.050781 L 171.800781 143.738281 L 171.230469 143.257812 L 165.210938 150.394531 C 163.507812 147.71875 162 144.796875 160.703125 141.929688 L 166.160156 136.46875 L 165.632812 135.941406 L 160.375 141.203125 C 159.085938 138.296875 158.015625 135.476562 157.171875 133.066406 C 166.507812 106.335938 210.652344 109.167969 211.050781 109.191406 L 252.738281 118.308594 C 252.90625 118.34375 269.523438 122.121094 280.914062 138.1875 C 284.011719 142.558594 287.429688 147.757812 291.078125 153.648438 C 289.546875 154.214844 287.820312 154.9375 286.019531 155.839844 L 281.878906 151.695312 L 281.351562 152.222656 L 285.316406 156.191406 C 282.804688 157.496094 280.175781 159.148438 277.722656 161.207031 L 273 156.65625 L 272.484375 157.195312 L 277.152344 161.695312 C 274.804688 163.746094 272.65625 166.191406 270.953125 169.085938 L 265.992188 165.941406 L 265.589844 166.570312 L 270.578125 169.734375 C 269.214844 172.214844 268.183594 175.007812 267.640625 178.160156 C 264.984375 176.417969 263.179688 175 262.277344 173.933594 L 257.535156 166.535156 L 256.910156 166.9375 L 261.546875 174.179688 Z M 267.710938 179.101562 L 268.199219 179.414062 L 268.285156 178.84375 C 270.53125 163.964844 283.960938 157.011719 291.765625 154.191406 L 292.199219 154.035156 L 291.957031 153.644531 C 288.207031 147.582031 284.695312 142.234375 281.523438 137.757812 C 269.957031 121.445312 253.066406 117.613281 252.898438 117.578125 L 211.15625 108.457031 C 210.703125 108.421875 165.851562 105.542969 156.425781 132.941406 L 156.382812 133.066406 L 156.425781 133.1875 C 159.832031 142.980469 167.058594 159.628906 177.316406 161.683594 L 195.402344 226.078125 L 198.3125 225.117188 L 226.277344 215.171875 L 226.226562 214.867188 C 226.207031 214.738281 224.167969 202.117188 225.402344 193.933594 C 226.457031 186.949219 230.390625 183.375 233.722656 183.449219 C 234.761719 183.472656 235.589844 183.875 236.25 184.683594 C 239.117188 188.171875 237.589844 197.734375 237.472656 198.4375 L 229.746094 216.90625 L 280.65625 228.324219 L 280.425781 227.683594 C 274.523438 211.355469 255.027344 194.027344 252.675781 191.984375 L 262.058594 174.800781 C 263.148438 175.933594 265.046875 177.378906 267.710938 179.101562 " fill-opacity="1" fill-rule="nonzero"/><path fill="rgb(97.648621%, 63.529968%, 42.349243%)" d="M 266.453125 95.972656 C 265.410156 101.589844 258.742188 105.402344 256.742188 105.117188 C 256.742188 105.117188 252.175781 112.070312 249.027344 114.640625 L 254.171875 119.117188 C 254.171875 119.117188 242.078125 138.539062 231.222656 136.734375 L 229.324219 145.6875 C 229.324219 145.6875 217.320312 148.449219 213.601562 141.398438 L 216.753906 133.019531 C 216.753906 133.019531 205.988281 127.402344 211.128906 108.828125 L 215.417969 107.878906 C 215.417969 107.878906 214.179688 105.304688 213.984375 99.691406 C 213.984375 99.691406 213.960938 99.207031 213.953125 98.359375 C 209.0625 95.875 209.542969 85.980469 211.511719 84.832031 C 212.890625 84.027344 214.058594 85.234375 214.769531 86.316406 C 215.40625 81.976562 216.511719 77.152344 218.429688 72.773438 L 218.429688 73.210938 C 218.429688 73.210938 222.269531 68.542969 227.03125 66.164062 C 231.796875 63.78125 253.984375 67.496094 257.035156 77.6875 C 260.074219 87.878906 258.871094 94.550781 258.871094 94.550781 L 261.128906 92.929688 C 261.128906 92.929688 267.507812 90.355469 266.453125 95.972656 " fill-opacity="1" fill-rule="nonzero"/><path fill="rgb(100%, 100%, 100%)" d="M 229.507812 94.164062 C 229.507812 94.164062 227.890625 85.972656 221.703125 86.828125 C 215.511719 87.6875 222.558594 100.414062 229.507812 94.164062 Z M 239.507812 96.066406 C 239.507812 96.066406 244.648438 88.734375 250.460938 92.828125 C 256.269531 96.925781 245.222656 105.6875 239.507812 96.066406 " fill-opacity="1" fill-rule="nonzero"/><path fill="rgb(6.269836%, 5.879211%, 5.099487%)" d="M 254.570312 76.09375 C 255.425781 76.457031 256.066406 77.472656 255.921875 78.21875 C 255.789062 78.898438 255.03125 79.054688 254.421875 79.066406 C 253.710938 79.078125 253.261719 78.890625 253.03125 78.492188 C 252.722656 77.96875 252.785156 77.132812 253.015625 76.238281 C 253.507812 75.917969 254.039062 75.867188 254.570312 76.09375 Z M 230.746094 59.976562 C 224.78125 62.140625 220.921875 67.082031 218.429688 72.773438 L 217.417969 74.496094 C 217.417969 74.496094 221.746094 69.191406 226.238281 66.59375 C 226.359375 66.699219 226.492188 66.808594 226.625 66.921875 C 226.179688 68.222656 225.808594 70.054688 226.515625 71.457031 C 227.027344 72.476562 228.015625 73.105469 229.453125 73.324219 L 229.566406 72.589844 C 228.382812 72.40625 227.578125 71.914062 227.179688 71.121094 C 226.640625 70.042969 226.886719 68.582031 227.246094 67.4375 C 229.171875 69.027344 231.757812 71.0625 233.988281 72.441406 C 233.65625 73.324219 233.476562 74.328125 233.738281 75.285156 C 234.082031 76.546875 235.132812 77.480469 236.847656 78.0625 L 237.089844 77.355469 C 235.621094 76.859375 234.738281 76.097656 234.457031 75.085938 C 234.257812 74.355469 234.386719 73.5625 234.644531 72.835938 C 235.199219 73.160156 235.722656 73.425781 236.199219 73.625 C 236.398438 74.519531 236.941406 76.152344 238.347656 77.183594 C 239.167969 77.78125 240.152344 78.085938 241.289062 78.085938 C 241.808594 78.085938 242.359375 78.019531 242.941406 77.894531 L 242.785156 77.164062 C 241.15625 77.519531 239.808594 77.324219 238.792969 76.582031 C 237.789062 75.851562 237.289062 74.722656 237.046875 73.90625 C 240.265625 74.691406 248.636719 73.875 253.332031 73.316406 C 253.007812 73.984375 252.617188 74.871094 252.359375 75.789062 C 252.101562 75.992188 251.84375 76.265625 251.59375 76.625 C 250.902344 77.601562 250.710938 78.582031 251.023438 79.539062 C 251.828125 82.019531 255.785156 83.386719 255.957031 83.441406 L 256.195312 82.734375 C 256.15625 82.71875 252.421875 81.429688 251.730469 79.308594 C 251.507812 78.628906 251.625 77.945312 252.089844 77.222656 C 252.046875 77.84375 252.117188 78.417969 252.386719 78.871094 C 252.765625 79.515625 253.445312 79.828125 254.4375 79.8125 C 256.1875 79.777344 256.570312 78.785156 256.652344 78.363281 C 256.867188 77.265625 256.046875 75.914062 254.863281 75.410156 C 254.558594 75.273438 253.980469 75.109375 253.308594 75.289062 C 253.578125 74.539062 253.914062 73.816406 254.203125 73.253906 C 255.539062 74.566406 256.542969 76.042969 257.035156 77.6875 C 260.074219 87.878906 258.871094 94.550781 258.871094 94.550781 L 261.128906 92.929688 C 269.984375 73.589844 249.125 53.308594 230.746094 59.976562 " fill-opacity="1" fill-rule="nonzero"/><path fill="rgb(6.269836%, 5.879211%, 5.099487%)" d="M 236.511719 115.207031 L 236.285156 114.496094 C 231.550781 116.007812 228.402344 114.53125 228.371094 114.515625 L 228.046875 115.1875 C 228.136719 115.234375 229.609375 115.929688 232.0625 115.929688 C 233.308594 115.929688 234.8125 115.75 236.511719 115.207031 Z M 169.179688 155.921875 L 163.90625 154.730469 L 163.742188 155.460938 L 169.015625 156.648438 Z M 297.78125 181.195312 L 297.035156 181.195312 L 297.035156 185.71875 L 297.78125 185.71875 Z M 248.25 115.582031 L 246.871094 118.976562 L 247.5625 119.257812 L 249.828125 113.671875 L 248.824219 114.328125 C 248.703125 114.410156 236.378906 122.449219 231.011719 121.351562 C 225.214844 120.167969 220.21875 115.699219 215.742188 107.695312 L 214.90625 106.203125 L 215.34375 111.589844 L 216.085938 111.53125 L 215.921875 109.496094 C 220.300781 116.800781 225.199219 120.925781 230.863281 122.085938 C 231.25 122.164062 231.664062 122.203125 232.101562 122.199219 C 237.148438 122.199219 245.398438 117.351562 248.25 115.582031 Z M 224.890625 98.589844 C 224.734375 98.589844 224.605469 98.71875 224.605469 98.878906 C 224.605469 99.035156 224.734375 99.164062 224.890625 99.164062 C 225.046875 99.164062 225.175781 99.035156 225.175781 98.878906 C 225.175781 98.71875 225.046875 98.589844 224.890625 98.589844 Z M 221.464844 98.589844 C 221.25 98.589844 221.082031 98.761719 221.082031 98.972656 C 221.082031 99.183594 221.25 99.355469 221.464844 99.355469 C 221.675781 99.355469 221.84375 99.183594 221.84375 98.972656 C 221.84375 98.761719 221.675781 98.589844 221.464844 98.589844 Z M 218.875 94.984375 C 218.628906 94.984375 218.429688 95.183594 218.429688 95.429688 C 218.429688 95.675781 218.628906 95.875 218.875 95.875 C 219.121094 95.875 219.320312 95.675781 219.320312 95.429688 C 219.320312 95.183594 219.121094 94.984375 218.875 94.984375 Z M 248.238281 102.363281 C 248.042969 102.363281 247.890625 102.523438 247.890625 102.71875 C 247.890625 102.910156 248.042969 103.066406 248.238281 103.066406 C 248.433594 103.066406 248.589844 102.910156 248.589844 102.71875 C 248.589844 102.523438 248.433594 102.363281 248.238281 102.363281 Z M 245.09375 104.402344 C 244.847656 104.402344 244.648438 104.601562 244.648438 104.84375 C 244.648438 105.085938 244.847656 105.28125 245.09375 105.28125 C 245.335938 105.28125 245.53125 105.085938 245.53125 104.84375 C 245.53125 104.601562 245.335938 104.402344 245.09375 104.402344 Z M 241.996094 101.878906 C 241.726562 101.878906 241.507812 102.097656 241.507812 102.363281 C 241.507812 102.636719 241.726562 102.855469 241.996094 102.855469 C 242.265625 102.855469 242.484375 102.636719 242.484375 102.363281 C 242.484375 102.097656 242.265625 101.878906 241.996094 101.878906 Z M 230.253906 84.292969 C 230.253906 84.292969 230.207031 81.433594 229.210938 80.769531 C 228.210938 80.101562 222.683594 76.957031 221.972656 78.246094 C 221.257812 79.53125 221.972656 81.769531 222.925781 81.910156 C 223.875 82.054688 230.46875 86.121094 230.253906 84.292969 Z M 244.132812 83.464844 C 243.59375 83.539062 243.085938 83.738281 242.648438 84.050781 C 241.601562 84.808594 239.886719 86.230469 241.152344 86.6875 C 242.90625 87.320312 250.140625 87.132812 251.03125 86.023438 C 251.898438 84.933594 255.320312 81.9375 244.132812 83.464844 Z M 214.488281 92.058594 C 214.421875 88.90625 212.253906 86.605469 212.164062 86.507812 L 211.625 87.023438 C 211.644531 87.046875 213.679688 89.207031 213.742188 92.074219 Z M 265.066406 95.363281 L 265.121094 94.617188 C 265.074219 94.609375 260.585938 94.347656 258.535156 98.777344 L 259.210938 99.09375 C 261.042969 95.136719 264.902344 95.34375 265.066406 95.363281 Z M 241.859375 111.1875 C 241.609375 111.175781 240.644531 110.519531 239.75 109.753906 L 239.269531 110.320312 C 239.460938 110.488281 239.757812 110.730469 240.082031 110.976562 C 237.707031 111.765625 230.078125 113.753906 223.921875 109.292969 L 223.484375 109.894531 C 226.621094 112.171875 230.117188 112.847656 233.160156 112.847656 C 236.886719 112.847656 239.929688 111.839844 240.832031 111.503906 C 241.230469 111.75 241.601562 111.933594 241.859375 111.933594 Z M 235.183594 106.410156 L 232.136719 104.695312 L 231.769531 105.347656 L 234.816406 107.058594 Z M 228.980469 105.402344 C 228.371094 105.015625 228.0625 104.570312 228.039062 104.039062 C 227.980469 102.753906 229.632812 101.203125 230.277344 100.710938 L 229.824219 100.117188 C 229.714844 100.199219 227.210938 102.132812 227.292969 104.074219 C 227.328125 104.855469 227.761719 105.515625 228.578125 106.035156 Z M 224.144531 86.417969 C 219.320312 85.589844 218.429688 84.832031 218.429688 84.832031 C 218.429688 84.832031 218.921875 88.1875 219.632812 88.160156 C 219.632812 88.160156 222.429688 86.941406 224.972656 87.75 C 225.976562 88.070312 226.894531 89.144531 227.640625 90.324219 C 227.609375 90.324219 222.828125 90.238281 222.789062 95.097656 C 222.789062 95.097656 226.128906 97.785156 229.507812 94.164062 C 229.507812 94.164062 228.96875 87.242188 224.144531 86.417969 Z M 254.234375 92.324219 C 254.234375 92.324219 253.664062 95.371094 252.394531 95.433594 C 252.394531 95.433594 252.285156 95.136719 252.042969 94.738281 L 252.394531 95.433594 C 250.808594 102.085938 245.023438 100.320312 245.023438 100.320312 C 245.222656 93.410156 250.335938 93.777344 251.4375 93.9375 C 250.609375 93.027344 249.171875 92.125 246.871094 92.578125 C 242.683594 93.402344 239.507812 96.066406 239.507812 96.066406 C 239.507812 96.066406 241.539062 92.105469 245.476562 91.324219 C 249.410156 90.546875 250.875 92.957031 254.234375 92.324219 " fill-opacity="1" fill-rule="nonzero"/><path fill="rgb(6.269836%, 5.879211%, 5.099487%)" d="M 209.789062 112.839844 L 204.675781 112.125 L 204.574219 112.863281 L 209.6875 113.582031 Z M 212.664062 130.238281 L 207.871094 133.574219 L 208.296875 134.183594 L 213.089844 130.851562 Z M 257.039062 128.582031 L 257.402344 127.933594 L 251 124.324219 C 253.039062 121.660156 254.332031 119.570312 254.488281 119.3125 L 253.851562 118.921875 C 253.730469 119.121094 241.734375 138.484375 231.296875 136.371094 L 230.929688 136.292969 L 226.382812 158.722656 L 227.113281 158.871094 L 231.515625 137.164062 C 233.136719 137.425781 234.773438 137.21875 236.386719 136.691406 L 237.796875 141.597656 L 238.511719 141.394531 L 237.089844 136.4375 C 238.886719 135.742188 240.648438 134.667969 242.320312 133.378906 L 245.777344 138.191406 L 246.382812 137.753906 L 242.90625 132.914062 C 244.285156 131.792969 245.601562 130.542969 246.816406 129.265625 L 251.046875 133.753906 L 251.585938 133.238281 L 247.320312 128.71875 C 248.511719 127.429688 249.597656 126.125 250.542969 124.921875 Z M 216.921875 132.6875 L 217.21875 132.839844 L 209.351562 153.972656 L 208.652344 153.710938 L 216.289062 133.199219 C 213.015625 131.429688 211.183594 128.632812 210.21875 125.554688 L 205.066406 126.707031 L 204.902344 125.980469 L 210.007812 124.839844 C 209.535156 123.066406 209.335938 121.226562 209.300781 119.441406 L 203.945312 118.816406 L 204.03125 118.078125 L 209.292969 118.691406 C 209.320312 113.375 210.742188 108.804688 210.773438 108.710938 L 211.484375 108.9375 C 211.425781 109.121094 205.847656 127.058594 216.921875 132.6875 " fill-opacity="1" fill-rule="nonzero"/><path fill="rgb(19.60907%, 36.468506%, 47.44873%)" d="M 216.375 110.296875 C 216.375 112.148438 214.871094 113.648438 213.019531 113.648438 C 211.167969 113.648438 209.667969 112.148438 209.667969 110.296875 C 209.667969 108.445312 211.167969 106.941406 213.019531 106.941406 C 214.871094 106.941406 216.375 108.445312 216.375 110.296875 Z M 219.101562 117.292969 C 219.101562 119.144531 217.601562 120.644531 215.75 120.644531 C 213.898438 120.644531 212.398438 119.144531 212.398438 117.292969 C 212.398438 115.441406 213.898438 113.941406 215.75 113.941406 C 217.601562 113.941406 219.101562 115.441406 219.101562 117.292969 Z M 223.023438 123.402344 C 223.023438 125.253906 221.523438 126.753906 219.671875 126.753906 C 217.820312 126.753906 216.320312 125.253906 216.320312 123.402344 C 216.320312 121.546875 217.820312 120.050781 219.671875 120.050781 C 221.523438 120.050781 223.023438 121.546875 223.023438 123.402344 Z M 251.355469 120.277344 C 251.355469 122.132812 249.855469 123.632812 248.003906 123.632812 C 246.148438 123.632812 244.648438 122.132812 244.648438 120.277344 C 244.648438 118.425781 246.148438 116.925781 248.003906 116.925781 C 249.855469 116.925781 251.355469 118.425781 251.355469 120.277344 Z M 245.210938 125.125 C 245.210938 126.976562 243.707031 128.476562 241.859375 128.476562 C 240.007812 128.476562 238.507812 126.976562 238.507812 125.125 C 238.507812 123.269531 240.007812 121.769531 241.859375 121.769531 C 243.707031 121.769531 245.210938 123.269531 245.210938 125.125 Z M 238.15625 127.5 C 238.15625 129.351562 236.652344 130.851562 234.804688 130.851562 C 232.953125 130.851562 231.449219 129.351562 231.449219 127.5 C 231.449219 125.648438 232.953125 124.148438 234.804688 124.148438 C 236.652344 124.148438 238.15625 125.648438 238.15625 127.5 Z M 226.882812 124.484375 C 225.035156 124.484375 223.53125 125.984375 223.53125 127.835938 C 223.53125 129.6875 225.035156 131.1875 226.882812 131.1875 C 228.734375 131.1875 230.234375 129.6875 230.234375 127.835938 C 230.234375 125.984375 228.734375 124.484375 226.882812 124.484375 Z M 262.09375 92.617188 L 260.574219 93.324219 C 263.414062 87.515625 263.042969 79.207031 259.800781 72.808594 C 256.261719 65.828125 249.890625 61.191406 241.863281 59.75 C 224.605469 56.65625 217.246094 75.820312 217.179688 76 L 216.90625 74.195312 C 216.972656 74 223.632812 54.96875 242.128906 58.28125 C 250.625 59.804688 257.375 64.726562 261.128906 72.132812 C 264.636719 79.042969 265.183594 86.300781 262.09375 92.617188 " fill-opacity="1" fill-rule="nonzero"/><path fill="rgb(6.269836%, 5.879211%, 5.099487%)" d="M 338.066406 275.035156 L 263.3125 294.40625 L 204.757812 309.582031 L 186.53125 314.300781 L 163.933594 320.160156 L 33.71875 353.90625 L 33.53125 353.195312 L 163.328125 319.546875 L 186.027344 313.667969 L 204.414062 308.902344 L 263.3125 293.636719 L 337.878906 274.308594 L 338.066406 275.035156 " fill-opacity="1" fill-rule="nonzero"/><path fill="rgb(6.269836%, 5.879211%, 5.099487%)" d="M 157.421875 321.605469 C 157.210938 321.214844 136.554688 282.449219 145.640625 254.679688 C 154.753906 226.832031 202.367188 222.496094 202.847656 222.457031 L 202.910156 223.199219 C 202.433594 223.242188 155.3125 227.53125 146.351562 254.910156 C 137.363281 282.375 157.867188 320.863281 158.078125 321.25 L 157.421875 321.605469 " fill-opacity="1" fill-rule="nonzero"/><path fill="rgb(6.269836%, 5.879211%, 5.099487%)" d="M 236.398438 162.605469 C 234.167969 157.324219 230.382812 157.300781 228.003906 157.933594 C 229.28125 157.003906 231.050781 156.164062 232.800781 156.855469 C 236.609375 158.355469 240.609375 166.792969 239.898438 196.484375 C 239.148438 181.554688 238.011719 166.433594 236.398438 162.605469 Z M 236.148438 197.128906 C 236.148438 199.328125 234.34375 201.128906 232.144531 201.128906 C 231.949219 201.128906 231.753906 201.113281 231.570312 201.082031 C 229.644531 200.808594 226.8125 199.722656 226.8125 197.71875 L 227.320312 193.273438 C 227.320312 191.074219 229.738281 188.066406 231.929688 188.066406 C 232.691406 188.066406 233.621094 189.339844 234.234375 189.71875 C 234.5 189.875 234.746094 190.070312 234.96875 190.296875 C 235.699219 191.023438 236.148438 192.023438 236.148438 193.121094 Z M 223.949219 157.851562 C 217.710938 154.851562 212.3125 153.234375 207.648438 152.757812 C 215.222656 152.71875 221.191406 156 223.949219 157.851562 Z M 241.097656 229.78125 C 241.097656 229.78125 240.859375 218.710938 240.308594 205.492188 C 241.785156 175.226562 239.359375 158.636719 233.074219 156.164062 C 229.9375 154.925781 226.953125 157.667969 225.941406 158.753906 C 225.886719 158.78125 225.859375 158.796875 225.859375 158.796875 L 226.101562 158.515625 C 225.980469 158.410156 215.09375 149.144531 200.960938 152.902344 C 166.679688 158.527344 184.339844 241.589844 184.339844 241.589844 L 205.71875 237.140625 C 201.953125 230.746094 202.199219 224.125 202.207031 224.007812 L 203.070312 223.558594 C 203.0625 223.671875 202.773438 230.511719 206.625 236.953125 L 237.605469 230.503906 C 238.117188 224.820312 237.605469 219.90625 237.605469 219.90625 L 238.292969 220.082031 C 238.335938 220.453125 238.832031 224.996094 238.398438 230.34375 L 241.097656 229.78125 " fill-opacity="1" fill-rule="nonzero"/><path fill="rgb(100%, 100%, 100%)" d="M 192.5625 233.992188 C 192.476562 233.707031 184.222656 205.222656 185.347656 182.816406 C 186.460938 160.722656 203.898438 160.679688 204.617188 160.695312 L 204.628906 159.949219 C 204.628906 159.949219 204.621094 159.949219 204.617188 159.949219 C 204.058594 159.949219 185.738281 160.1875 184.605469 182.777344 C 183.46875 205.308594 191.761719 233.914062 191.84375 234.203125 Z M 199.117188 230.492188 L 193.308594 205.226562 L 194.035156 205.0625 L 199.847656 230.328125 L 199.117188 230.492188 " fill-opacity="1" fill-rule="nonzero"/><g clip-path="url(#id1)"><path fill="rgb(100%, 100%, 100%)" d="M 200.53125 352.230469 C 200.53125 352.230469 194.832031 355.417969 200.53125 362.976562 C 206.230469 370.53125 223.8125 378.238281 230.265625 372.78125 C 236.722656 367.324219 231.828125 350.304688 215.539062 347.179688 C 199.246094 344.046875 200.53125 352.230469 200.53125 352.230469 Z M 322.925781 289.207031 L 314.515625 310.550781 L 235.929688 332.445312 C 231.71875 334.539062 230.480469 332.195312 230.480469 332.195312 C 230.480469 332.195312 221.558594 313.675781 220.109375 311.664062 C 218.660156 309.65625 221.542969 308.378906 221.542969 308.378906 L 252.554688 299.648438 L 308.59375 285.714844 L 322.925781 289.207031 " fill-opacity="1" fill-rule="nonzero"/></g><g clip-path="url(#id2)"><path fill="rgb(6.269836%, 5.879211%, 5.099487%)" d="M 230.027344 372.496094 C 229.839844 372.65625 229.636719 372.796875 229.425781 372.929688 C 228.832031 370.800781 226.617188 363.570312 223.507812 362.160156 C 227.085938 360.710938 230.601562 360.804688 231.738281 360.882812 C 231.894531 361.324219 232.035156 361.761719 232.148438 362.191406 C 233.273438 366.488281 232.460938 370.441406 230.027344 372.496094 Z M 222.121094 374.128906 C 219.875 373.878906 217.433594 373.230469 215.003906 372.316406 C 216.289062 367.101562 219.265625 364.226562 222.386719 362.664062 C 222.40625 362.664062 222.429688 362.664062 222.453125 362.664062 C 225.257812 362.664062 227.871094 370.066406 228.757812 373.308594 C 227.074219 374.144531 224.820312 374.433594 222.121094 374.128906 Z M 200.828125 362.753906 C 198.851562 360.125 198.058594 357.777344 198.480469 355.765625 C 198.929688 353.589844 200.695312 352.566406 200.714844 352.558594 L 200.9375 352.429688 L 200.898438 352.175781 C 200.894531 352.15625 200.628906 350.304688 202.183594 348.800781 C 203.210938 347.808594 205.1875 346.839844 208.992188 346.839844 C 210.738281 346.839844 212.867188 347.046875 215.46875 347.542969 C 224.253906 349.234375 229.363281 354.984375 231.457031 360.128906 C 229.894531 360.078125 226.078125 360.167969 222.367188 361.917969 C 222.363281 361.917969 222.363281 361.917969 222.355469 361.917969 L 222.355469 361.925781 C 218.976562 363.527344 215.699219 366.515625 214.308594 372.046875 C 208.832031 369.859375 203.527344 366.332031 200.828125 362.753906 Z M 232.871094 362 C 231.359375 356.234375 225.933594 348.796875 215.609375 346.8125 C 208.726562 345.488281 204.03125 345.980469 201.664062 348.265625 C 200.171875 349.707031 200.105469 351.40625 200.140625 352.039062 C 199.597656 352.40625 198.183594 353.539062 197.75 355.597656 C 197.28125 357.832031 198.117188 360.390625 200.234375 363.203125 C 204.351562 368.664062 214.335938 374.007812 222.039062 374.871094 C 222.769531 374.949219 223.472656 374.992188 224.140625 374.992188 C 226.824219 374.992188 229.003906 374.339844 230.507812 373.066406 C 233.164062 370.820312 234.070312 366.582031 232.871094 362 Z M 307.617188 290.679688 L 302.796875 292.027344 L 301.511719 289.523438 L 305.898438 288.292969 C 306.136719 288.226562 306.4375 288.382812 306.570312 288.644531 Z M 309.304688 293.964844 L 304.488281 295.3125 L 303.136719 292.683594 L 307.953125 291.332031 Z M 310.910156 297.078125 L 306.089844 298.429688 L 304.824219 295.964844 L 309.644531 294.617188 Z M 312.511719 300.199219 L 307.695312 301.546875 L 306.429688 299.085938 L 311.246094 297.734375 Z M 313.765625 302.636719 C 313.898438 302.894531 313.816406 303.160156 313.578125 303.226562 L 309.191406 304.453125 L 308.03125 302.203125 L 312.847656 300.851562 Z M 302.203125 292.195312 L 299.285156 293.011719 L 297.996094 290.503906 L 300.914062 289.6875 Z M 303.890625 295.480469 L 300.972656 296.296875 L 299.621094 293.667969 L 302.539062 292.847656 Z M 305.496094 298.597656 L 302.578125 299.414062 L 301.308594 296.949219 L 304.230469 296.136719 Z M 307.097656 301.710938 L 304.179688 302.53125 L 302.914062 300.066406 L 305.832031 299.25 Z M 308.59375 304.625 L 305.675781 305.441406 L 304.515625 303.183594 L 307.433594 302.367188 Z M 298.6875 293.175781 L 295.628906 294.035156 L 294.34375 291.53125 L 297.398438 290.675781 Z M 300.378906 296.464844 L 297.320312 297.320312 L 295.964844 294.691406 L 299.023438 293.832031 Z M 301.980469 299.578125 L 298.921875 300.4375 L 297.65625 297.972656 L 300.714844 297.117188 Z M 303.582031 302.699219 L 300.527344 303.554688 L 299.257812 301.09375 L 302.316406 300.234375 Z M 305.082031 305.605469 L 302.019531 306.460938 L 300.863281 304.207031 L 303.921875 303.351562 Z M 295.03125 294.203125 L 292.214844 294.988281 L 290.925781 292.484375 L 293.746094 291.695312 Z M 296.722656 297.488281 L 293.90625 298.273438 L 292.554688 295.644531 L 295.371094 294.855469 Z M 298.324219 300.601562 L 295.507812 301.390625 L 294.242188 298.929688 L 297.058594 298.140625 Z M 299.929688 303.722656 L 297.113281 304.511719 L 295.847656 302.046875 L 298.664062 301.257812 Z M 301.425781 306.628906 L 298.609375 307.417969 L 297.449219 305.164062 L 300.265625 304.375 Z M 291.621094 295.15625 L 288.941406 295.90625 L 287.65625 293.402344 L 290.332031 292.652344 Z M 293.3125 298.441406 L 290.632812 299.191406 L 289.28125 296.558594 L 291.957031 295.8125 Z M 294.914062 301.558594 L 292.234375 302.308594 L 290.96875 299.84375 L 293.644531 299.097656 Z M 296.515625 304.675781 L 293.839844 305.425781 L 292.570312 302.964844 L 295.25 302.214844 Z M 298.011719 307.585938 L 295.335938 308.332031 L 294.175781 306.082031 L 296.855469 305.332031 Z M 288.347656 296.074219 L 285.707031 296.8125 L 284.417969 294.308594 L 287.058594 293.566406 Z M 290.035156 299.359375 L 287.394531 300.097656 L 286.042969 297.46875 L 288.683594 296.730469 Z M 291.636719 302.476562 L 289 303.214844 L 287.730469 300.75 L 290.371094 300.015625 Z M 293.242188 305.59375 L 290.601562 306.335938 L 289.335938 303.871094 L 291.976562 303.128906 Z M 294.738281 308.503906 L 292.097656 309.238281 L 290.9375 306.988281 L 293.578125 306.246094 Z M 285.113281 296.980469 L 282.089844 297.824219 L 280.800781 295.320312 L 283.820312 294.472656 Z M 286.796875 300.265625 L 283.78125 301.109375 L 282.429688 298.476562 L 285.445312 297.636719 Z M 288.402344 303.382812 L 285.382812 304.226562 L 284.117188 301.765625 L 287.136719 300.921875 Z M 290.007812 306.5 L 286.984375 307.347656 L 285.71875 304.878906 L 288.738281 304.035156 Z M 291.5 309.410156 L 288.484375 310.253906 L 287.324219 308 L 290.339844 307.152344 Z M 281.496094 297.992188 L 278.511719 298.828125 L 277.222656 296.320312 L 280.207031 295.488281 Z M 283.183594 301.277344 L 280.203125 302.113281 L 278.847656 299.480469 L 281.832031 298.648438 Z M 284.785156 304.394531 L 281.804688 305.230469 L 280.539062 302.769531 L 283.519531 301.929688 Z M 286.390625 307.511719 L 283.410156 308.347656 L 282.140625 305.882812 L 285.125 305.050781 Z M 287.886719 310.421875 L 284.90625 311.257812 L 283.746094 309 L 286.726562 308.167969 Z M 277.914062 298.992188 L 254.582031 305.527344 L 253.292969 303.019531 L 276.628906 296.488281 Z M 279.605469 302.277344 L 276.625 303.113281 L 275.269531 300.484375 L 278.253906 299.648438 Z M 281.207031 305.394531 L 278.226562 306.230469 L 276.960938 303.765625 L 279.941406 302.933594 Z M 282.8125 308.515625 L 279.832031 309.351562 L 278.5625 306.886719 L 281.542969 306.050781 Z M 284.308594 311.421875 L 281.328125 312.257812 L 280.167969 310.003906 L 283.148438 309.171875 Z M 276.027344 303.28125 L 273.171875 304.078125 L 271.820312 301.449219 L 274.675781 300.652344 Z M 277.628906 306.398438 L 274.777344 307.195312 L 273.507812 304.734375 L 276.363281 303.933594 Z M 279.234375 309.515625 L 276.378906 310.316406 L 275.109375 307.851562 L 277.964844 307.050781 Z M 280.730469 312.425781 L 277.875 313.222656 L 276.714844 310.972656 L 279.570312 310.167969 Z M 272.574219 304.246094 L 269.875 305.003906 L 268.519531 302.375 L 271.222656 301.617188 Z M 274.179688 307.367188 L 271.476562 308.121094 L 270.210938 305.660156 L 272.910156 304.902344 Z M 275.78125 310.480469 L 273.082031 311.238281 L 271.8125 308.773438 L 274.515625 308.019531 Z M 277.277344 313.390625 L 274.574219 314.148438 L 273.417969 311.894531 L 276.121094 311.136719 Z M 269.277344 305.167969 L 266.574219 305.925781 L 265.222656 303.296875 L 267.925781 302.539062 Z M 270.878906 308.285156 L 268.179688 309.042969 L 266.910156 306.582031 L 269.613281 305.824219 Z M 272.484375 311.40625 L 269.78125 312.164062 L 268.515625 309.699219 L 271.21875 308.941406 Z M 273.980469 314.3125 L 271.277344 315.070312 L 270.117188 312.816406 L 272.820312 312.0625 Z M 265.976562 306.09375 L 263.160156 306.882812 L 261.804688 304.253906 L 264.625 303.464844 Z M 267.582031 309.210938 L 264.765625 310 L 263.496094 307.539062 L 266.3125 306.75 Z M 269.183594 312.328125 L 266.367188 313.117188 L 265.101562 310.65625 L 267.917969 309.867188 Z M 270.679688 315.238281 L 267.863281 316.027344 L 266.703125 313.769531 L 269.519531 312.984375 Z M 262.5625 307.050781 L 259.964844 307.777344 L 258.609375 305.148438 L 261.210938 304.421875 Z M 264.167969 310.167969 L 261.566406 310.894531 L 260.300781 308.433594 L 262.898438 307.703125 Z M 265.773438 313.285156 L 263.171875 314.011719 L 261.902344 311.546875 L 264.503906 310.824219 Z M 267.265625 316.191406 L 264.664062 316.921875 L 263.507812 314.667969 L 266.105469 313.9375 Z M 259.367188 307.945312 L 256.269531 308.8125 L 254.917969 306.183594 L 258.015625 305.316406 Z M 260.96875 311.0625 L 257.871094 311.929688 L 256.609375 309.46875 L 259.703125 308.597656 Z M 262.574219 314.179688 L 259.476562 315.046875 L 258.210938 312.582031 L 261.308594 311.71875 Z M 264.070312 317.085938 L 260.972656 317.957031 L 259.8125 315.699219 L 262.910156 314.835938 Z M 253.984375 305.695312 L 250.976562 306.535156 L 249.6875 304.03125 L 252.699219 303.191406 Z M 255.675781 308.980469 L 252.667969 309.824219 L 251.3125 307.191406 L 254.320312 306.347656 Z M 257.277344 312.097656 L 254.269531 312.9375 L 253.003906 310.476562 L 256.011719 309.632812 Z M 258.882812 315.214844 L 255.875 316.054688 L 254.605469 313.589844 L 257.613281 312.75 Z M 260.378906 318.121094 L 257.367188 318.964844 L 256.210938 316.707031 L 259.21875 315.867188 Z M 250.382812 306.703125 L 247.324219 307.558594 L 246.035156 305.054688 L 249.09375 304.199219 Z M 252.070312 309.988281 L 249.011719 310.84375 L 247.660156 308.214844 L 250.714844 307.359375 Z M 253.671875 313.105469 L 250.617188 313.960938 L 249.351562 311.5 L 252.40625 310.640625 Z M 255.277344 316.222656 L 252.21875 317.078125 L 250.953125 314.617188 L 254.007812 313.761719 Z M 256.769531 319.128906 L 253.714844 319.988281 L 252.554688 317.730469 L 255.613281 316.878906 Z M 246.726562 307.726562 L 243.972656 308.496094 L 242.6875 305.992188 L 245.4375 305.222656 Z M 248.414062 311.011719 L 245.664062 311.78125 L 244.308594 309.152344 L 247.0625 308.378906 Z M 250.019531 314.128906 L 247.265625 314.898438 L 246 312.4375 L 248.753906 311.664062 Z M 251.621094 317.246094 L 248.867188 318.015625 L 247.605469 315.550781 L 250.355469 314.78125 Z M 253.117188 320.152344 L 250.367188 320.925781 L 249.207031 318.671875 L 251.957031 317.902344 Z M 243.375 308.664062 L 241.132812 309.292969 L 239.839844 306.785156 L 242.089844 306.160156 Z M 245.066406 311.949219 L 242.820312 312.578125 L 241.46875 309.949219 L 243.714844 309.320312 Z M 246.667969 315.066406 L 244.425781 315.695312 L 243.15625 313.230469 L 245.402344 312.601562 Z M 248.273438 318.183594 L 246.027344 318.8125 L 244.761719 316.351562 L 247.007812 315.722656 Z M 249.769531 321.089844 L 247.523438 321.722656 L 246.363281 319.464844 L 248.609375 318.839844 Z M 240.535156 309.457031 L 238.085938 310.144531 L 236.796875 307.640625 L 239.246094 306.957031 Z M 242.226562 312.746094 L 239.773438 313.429688 L 238.421875 310.800781 L 240.871094 310.113281 Z M 243.828125 315.859375 L 241.378906 316.546875 L 240.113281 314.082031 L 242.558594 313.398438 Z M 245.429688 318.980469 L 242.980469 319.667969 L 241.714844 317.203125 L 244.164062 316.515625 Z M 246.925781 321.886719 L 244.476562 322.574219 L 243.316406 320.320312 L 245.769531 319.632812 Z M 237.492188 310.3125 L 234.839844 311.054688 L 233.550781 308.550781 L 236.199219 307.804688 Z M 239.179688 313.597656 L 236.527344 314.339844 L 235.171875 311.710938 L 237.824219 310.96875 Z M 240.78125 316.714844 L 238.128906 317.457031 L 236.863281 314.992188 L 239.515625 314.253906 Z M 242.386719 319.832031 L 239.734375 320.574219 L 238.464844 318.109375 L 241.117188 317.371094 Z M 243.878906 322.742188 L 241.230469 323.484375 L 240.070312 321.230469 L 242.71875 320.484375 Z M 234.242188 311.222656 L 231.335938 312.035156 L 230.046875 309.53125 L 232.953125 308.714844 Z M 235.929688 314.507812 L 233.023438 315.320312 L 231.671875 312.691406 L 234.578125 311.878906 Z M 237.535156 317.625 L 234.628906 318.4375 L 233.363281 315.972656 L 236.265625 315.160156 Z M 239.136719 320.742188 L 236.230469 321.554688 L 234.964844 319.09375 L 237.867188 318.277344 Z M 240.632812 323.652344 L 237.726562 324.464844 L 236.566406 322.210938 L 239.472656 321.394531 Z M 230.738281 312.203125 L 227.78125 313.03125 L 226.492188 310.523438 L 229.449219 309.699219 Z M 232.429688 315.488281 L 229.472656 316.316406 L 228.121094 313.683594 L 231.074219 312.855469 Z M 234.03125 318.601562 L 231.074219 319.429688 L 229.804688 316.972656 L 232.765625 316.140625 Z M 235.632812 321.722656 L 232.679688 322.550781 L 231.410156 320.085938 L 234.367188 319.257812 Z M 237.128906 324.628906 L 234.175781 325.457031 L 233.015625 323.203125 L 235.972656 322.375 Z M 227.1875 313.199219 L 224.363281 313.988281 L 223.320312 311.953125 C 223.1875 311.695312 223.269531 311.429688 223.507812 311.363281 L 225.898438 310.695312 Z M 228.875 316.480469 L 226.054688 317.269531 L 224.703125 314.640625 L 227.523438 313.851562 Z M 230.480469 319.601562 L 227.65625 320.390625 L 226.390625 317.925781 L 229.210938 317.136719 Z M 232.082031 322.71875 L 229.261719 323.507812 L 227.992188 321.046875 L 230.816406 320.253906 Z M 233.578125 325.625 L 231.1875 326.296875 C 230.949219 326.359375 230.648438 326.203125 230.515625 325.945312 L 229.597656 324.160156 L 232.417969 323.371094 Z M 305.5625 287.640625 L 223.167969 310.707031 C 222.601562 310.867188 222.402344 311.5 222.722656 312.117188 L 229.917969 326.113281 C 230.238281 326.734375 230.957031 327.105469 231.523438 326.949219 L 313.914062 303.878906 C 314.480469 303.722656 314.679688 303.089844 314.363281 302.46875 L 307.167969 288.476562 C 306.847656 287.855469 306.128906 287.480469 305.5625 287.640625 Z M 315.972656 306.925781 C 316.183594 307.332031 316.050781 307.746094 315.679688 307.851562 L 311.535156 309.007812 L 310.378906 306.769531 L 314.527344 305.609375 C 314.898438 305.503906 315.367188 305.75 315.574219 306.152344 Z M 310.9375 309.175781 L 308.015625 309.996094 L 306.867188 307.753906 L 309.785156 306.933594 Z M 307.421875 310.160156 L 304.363281 311.019531 L 303.210938 308.777344 L 306.269531 307.917969 Z M 303.765625 311.183594 L 300.949219 311.972656 L 299.796875 309.734375 L 302.613281 308.941406 Z M 300.355469 312.140625 L 297.675781 312.890625 L 296.523438 310.648438 L 299.203125 309.898438 Z M 297.082031 313.058594 L 294.441406 313.796875 L 293.289062 311.558594 L 295.925781 310.816406 Z M 293.84375 313.964844 L 290.824219 314.808594 L 289.671875 312.566406 L 292.691406 311.722656 Z M 290.226562 314.976562 L 287.246094 315.8125 L 286.09375 313.566406 L 289.074219 312.734375 Z M 286.648438 315.976562 L 283.667969 316.8125 L 282.515625 314.574219 L 285.496094 313.738281 Z M 283.070312 316.980469 L 280.214844 317.777344 L 279.066406 315.539062 L 281.917969 314.738281 Z M 279.617188 317.945312 L 276.917969 318.703125 L 275.765625 316.460938 L 278.46875 315.703125 Z M 276.324219 318.867188 L 273.621094 319.625 L 272.464844 317.386719 L 275.167969 316.628906 Z M 273.023438 319.792969 L 270.203125 320.582031 L 269.054688 318.339844 L 271.871094 317.550781 Z M 269.609375 320.746094 L 267.007812 321.476562 L 265.855469 319.234375 L 268.457031 318.507812 Z M 266.410156 321.640625 L 263.316406 322.511719 L 262.160156 320.269531 L 265.257812 319.402344 Z M 262.71875 322.675781 L 259.710938 323.519531 L 258.558594 321.277344 L 261.566406 320.4375 Z M 259.113281 323.683594 L 256.058594 324.542969 L 254.90625 322.300781 L 257.964844 321.445312 Z M 255.460938 324.707031 L 252.707031 325.480469 L 251.554688 323.238281 L 254.308594 322.46875 Z M 252.113281 325.648438 L 249.867188 326.277344 L 248.710938 324.035156 L 250.957031 323.40625 Z M 249.269531 326.441406 L 246.820312 327.128906 L 245.667969 324.890625 L 248.117188 324.203125 Z M 246.222656 327.296875 L 243.570312 328.039062 L 242.417969 325.796875 L 245.070312 325.054688 Z M 242.972656 328.207031 L 240.070312 329.019531 L 238.917969 326.777344 L 241.824219 325.964844 Z M 239.472656 329.1875 L 236.515625 330.011719 L 235.363281 327.769531 L 238.320312 326.945312 Z M 235.917969 330.179688 L 233.769531 330.78125 C 233.398438 330.886719 232.929688 330.640625 232.71875 330.238281 L 232.324219 329.464844 C 232.117188 329.058594 232.25 328.644531 232.617188 328.539062 L 234.765625 327.941406 Z M 314.191406 304.953125 L 232.28125 327.886719 C 231.582031 328.082031 231.332031 328.867188 231.726562 329.628906 L 232.125 330.402344 C 232.519531 331.167969 233.40625 331.632812 234.105469 331.4375 L 316.015625 308.503906 C 316.714844 308.308594 316.960938 307.523438 316.570312 306.761719 L 316.171875 305.988281 C 315.777344 305.222656 314.890625 304.757812 314.191406 304.953125 Z M 318.570312 306.839844 C 319.109375 307.886719 318.773438 308.953125 317.820312 309.21875 L 233.402344 332.855469 C 232.445312 333.121094 231.234375 332.488281 230.699219 331.441406 L 220.367188 311.351562 C 219.828125 310.308594 220.164062 309.238281 221.121094 308.976562 L 305.539062 285.339844 C 306.492188 285.074219 307.707031 285.707031 308.242188 286.75 Z M 305.199219 284.683594 L 220.78125 308.320312 C 219.5 308.675781 219.046875 310.113281 219.769531 311.523438 L 230.101562 331.613281 C 230.824219 333.015625 232.457031 333.867188 233.738281 333.507812 L 318.15625 309.875 C 319.4375 309.515625 319.894531 308.082031 319.167969 306.671875 L 308.839844 286.582031 C 308.117188 285.179688 306.480469 284.328125 305.199219 284.683594 " fill-opacity="1" fill-rule="nonzero"/></g><path fill="rgb(92.939758%, 66.668701%, 59.609985%)" d="M 189.6875 345.589844 C 194.816406 358.632812 192.464844 352.097656 200.65625 360.382812 C 208.84375 368.667969 216.179688 370.921875 217.605469 370.921875 C 219.035156 370.921875 216.90625 367.9375 216.90625 367.9375 C 216.90625 367.9375 219.890625 372.828125 222.179688 372.828125 C 224.460938 372.828125 223.320312 369.875 223.320312 369.875 C 223.320312 369.875 223.320312 370.730469 225.699219 370.539062 C 228.082031 370.347656 223.417969 359.015625 223.128906 357.398438 C 222.84375 355.777344 219.644531 350.570312 219.644531 350.570312 L 224.460938 351.8125 C 224.460938 351.8125 229.730469 365.082031 231.507812 364.0625 C 233.289062 363.050781 231.824219 349.398438 228.269531 346.476562 C 224.714844 343.558594 204.273438 336.445312 204.273438 336.445312 C 204.273438 336.445312 184.5625 332.542969 189.6875 345.589844 Z M 234.230469 189.703125 C 233.617188 189.324219 232.902344 189.105469 232.140625 189.105469 C 229.949219 189.105469 228.144531 190.902344 228.144531 193.105469 L 228.144531 197.113281 C 228.144531 199.117188 229.640625 200.789062 231.566406 201.0625 L 231.960938 224.027344 C 215.125 238.394531 203.0625 223.757812 203.0625 223.757812 L 208.160156 220.917969 L 207.839844 213.910156 C 200.328125 216.15625 195.820312 215.234375 190.570312 203.863281 C 185.316406 192.492188 189.816406 188.523438 189.816406 188.523438 C 189.816406 188.523438 186.382812 171.574219 202.039062 166.644531 C 206.160156 165.34375 209.757812 165.664062 212.828125 166.832031 C 215.445312 164.847656 222.070312 161.363281 222.070312 161.363281 C 222.070312 161.363281 216.445312 165.332031 213.519531 167.101562 C 221.707031 170.605469 225.957031 180.050781 225.957031 180.050781 C 225.957031 180.050781 229.5 173.9375 235.507812 178.4375 C 239.292969 181.28125 236.675781 186.351562 234.230469 189.703125 " fill-opacity="1" fill-rule="nonzero"/><path fill="rgb(6.269836%, 5.879211%, 5.099487%)" d="M 219.890625 350.285156 L 218.550781 349.117188 L 218.0625 349.679688 L 219.402344 350.847656 Z M 217.785156 368.582031 L 209.972656 357.878906 L 209.367188 358.316406 L 217.179688 369.023438 Z M 222.96875 370.003906 C 222.9375 369.917969 219.667969 361.273438 218.855469 359.589844 C 218.0625 357.9375 213.746094 352.800781 213.703125 352.75 L 214.273438 352.265625 C 214.453125 352.484375 218.695312 357.53125 219.527344 359.265625 C 220.351562 360.976562 223.535156 369.386719 223.667969 369.742188 L 222.96875 370.003906 " fill-opacity="1" fill-rule="nonzero"/><path fill="rgb(19.60907%, 36.468506%, 47.44873%)" d="M 238.304688 220.210938 C 238.5 222.007812 240.089844 239.03125 232.574219 245.792969 C 230.582031 247.585938 228.121094 248.484375 225.222656 248.484375 C 224.058594 248.484375 222.824219 248.339844 221.523438 248.046875 C 202.550781 243.804688 202.175781 226.285156 202.203125 224.21875 C 198.792969 225.929688 173.15625 238.882812 172.085938 241.023438 C 170.945312 243.304688 155.894531 310.730469 157.039062 312.828125 C 157.34375 313.394531 159.84375 316.011719 163.328125 319.546875 C 163.523438 319.75 163.722656 319.953125 163.933594 320.160156 C 173.523438 329.847656 189.6875 345.589844 189.6875 345.589844 L 204.273438 336.445312 L 186.53125 314.300781 L 186.027344 313.667969 L 177.417969 302.917969 L 188.023438 277.019531 L 204.414062 308.902344 L 263.3125 293.636719 L 263.3125 225.972656 Z M 208.160156 220.917969 L 207.988281 218.351562 L 231.6875 207.875 L 231.871094 218.730469 L 237.617188 220.054688 C 237.777344 221.738281 239.1875 238.839844 232.078125 245.238281 C 229.472656 247.578125 225.976562 248.28125 221.6875 247.320312 C 203.277344 243.199219 203.03125 225.769531 203.0625 223.757812 L 208.160156 220.917969 " fill-opacity="1" fill-rule="nonzero"/><path fill="rgb(100%, 100%, 100%)" d="M 203.640625 203.039062 C 196.847656 205.453125 195.195312 201.074219 195.195312 201.074219 C 200.210938 201.453125 214.050781 190.976562 214.050781 190.976562 C 214.050781 190.976562 210.433594 200.625 203.640625 203.039062 " fill-opacity="1" fill-rule="nonzero"/><path fill="rgb(6.269836%, 5.879211%, 5.099487%)" d="M 216.953125 369.765625 C 216.949219 369.753906 216.949219 369.707031 216.933594 369.617188 C 216.742188 368.707031 216.105469 367.484375 215.296875 367.007812 C 215.097656 366.894531 214.90625 366.835938 214.726562 366.835938 C 214.644531 366.835938 214.5625 366.847656 214.480469 366.871094 L 214.476562 366.871094 C 214.238281 366.945312 213.71875 367.1875 213.632812 367.476562 C 213.597656 367.617188 213.667969 367.796875 213.855469 368.007812 C 214.746094 369.011719 216.582031 369.921875 216.953125 369.765625 Z M 217.660156 369.464844 C 217.796875 370.101562 217.453125 370.347656 217.296875 370.425781 C 217.179688 370.488281 217.03125 370.511719 216.871094 370.511719 C 215.8125 370.511719 214.011719 369.3125 213.296875 368.503906 C 212.84375 367.984375 212.839844 367.550781 212.917969 367.269531 C 213.132812 366.519531 214.132812 366.195312 214.257812 366.160156 C 214.714844 366.019531 215.207031 366.089844 215.675781 366.367188 C 216.679688 366.957031 217.433594 368.371094 217.660156 369.464844 Z M 222.417969 369.386719 L 222.417969 369.390625 C 222.417969 369.390625 222.011719 368.398438 221.164062 367.71875 C 220.804688 367.457031 220.207031 367.160156 219.816406 367.160156 C 219.726562 367.160156 219.652344 367.171875 219.585938 367.207031 C 219.378906 367.324219 219.289062 367.722656 219.335938 368.324219 C 219.425781 369.550781 220.582031 370.800781 221.601562 371.199219 C 221.992188 371.355469 222.304688 371.359375 222.464844 371.210938 C 222.558594 371.125 222.832031 370.730469 222.417969 369.386719 Z M 223.117188 369.144531 C 223.519531 370.425781 223.464844 371.296875 222.96875 371.757812 C 222.753906 371.960938 222.464844 372.0625 222.132812 372.0625 C 221.890625 372.0625 221.617188 372.007812 221.328125 371.898438 C 220.078125 371.40625 218.710938 369.957031 218.589844 368.378906 C 218.519531 367.445312 218.734375 366.828125 219.226562 366.554688 C 220.113281 366.058594 221.460938 367.011719 221.613281 367.121094 L 221.625 367.128906 C 222.644531 367.945312 223.101562 369.09375 223.117188 369.144531 Z M 224.933594 369.128906 C 224.414062 368.8125 224.050781 368.214844 223.851562 367.359375 C 223.636719 366.453125 223.679688 365.789062 223.976562 365.4375 C 224.242188 365.125 224.65625 365.152344 224.671875 365.152344 L 224.703125 364.78125 L 224.734375 364.40625 C 224.703125 364.402344 223.9375 364.34375 223.417969 364.945312 C 222.945312 365.488281 222.847656 366.359375 223.125 367.53125 C 223.371094 368.59375 223.855469 369.347656 224.554688 369.769531 C 225.046875 370.070312 225.542969 370.140625 225.90625 370.140625 C 226.210938 370.140625 226.417969 370.089844 226.433594 370.085938 L 226.253906 369.363281 C 226.25 369.363281 225.566406 369.519531 224.933594 369.128906 Z M 230.570312 359.871094 C 230.277344 357.839844 231.910156 357.53125 232.101562 357.5 L 232.042969 357.132812 L 231.992188 356.761719 C 231.949219 356.769531 230.929688 356.921875 230.289062 357.777344 C 229.859375 358.351562 229.703125 359.09375 229.828125 359.976562 C 230.222656 362.683594 231.90625 363.039062 231.972656 363.050781 L 232.121094 362.316406 C 232.070312 362.304688 230.882812 362.019531 230.570312 359.871094 Z M 184.84375 336.167969 L 192.335938 343.441406 L 192.851562 342.90625 L 185.363281 335.628906 Z M 187.757812 332.394531 L 196.703125 341.289062 L 197.234375 340.761719 L 188.285156 331.863281 Z M 192.328125 329.632812 L 201.078125 338.542969 L 201.609375 338.019531 L 192.859375 329.113281 Z M 210.765625 225.652344 L 211.511719 225.652344 L 211.511719 216.957031 L 210.765625 216.957031 Z M 217.316406 225.972656 L 217.316406 214.394531 L 216.570312 214.394531 L 216.570312 225.972656 Z M 222.183594 229.261719 L 222.929688 229.261719 L 222.929688 211.910156 L 222.183594 211.910156 Z M 226.96875 223.175781 L 227.714844 223.175781 L 227.714844 209.792969 L 226.96875 209.792969 Z M 199.230469 266.269531 L 189.179688 275.449219 L 195.082031 263.082031 L 194.410156 262.761719 L 186.863281 278.582031 L 199.734375 266.820312 Z M 231.503906 218.742188 L 231.613281 222.839844 L 232.359375 222.816406 L 232.25 218.722656 Z M 191.25 175.839844 L 190.734375 177.117188 L 193.675781 174.859375 C 193.675781 174.859375 192.078125 174.796875 191.25 175.839844 Z M 194.703125 184.929688 C 193.703125 185.523438 192.394531 186.425781 192.140625 187.238281 C 192.058594 187.507812 192.082031 187.769531 192.203125 187.992188 C 192.851562 189.164062 195.628906 192.191406 195.746094 192.320312 L 196.296875 191.816406 C 196.269531 191.785156 193.460938 188.722656 192.855469 187.632812 C 192.84375 187.613281 192.820312 187.570312 192.851562 187.460938 C 193.082031 186.730469 195.019531 185.550781 196.1875 184.972656 L 195.855469 184.304688 C 195.742188 184.363281 195.304688 184.582031 194.769531 184.894531 C 194.175781 184.5625 191.140625 182.957031 189.511719 183.816406 L 187.070312 183.074219 L 189.6875 185.71875 C 189.6875 185.71875 192.160156 184.570312 194.703125 184.929688 Z M 209.226562 169.84375 C 202.6875 168.511719 199.480469 172.765625 199.480469 172.765625 C 202.308594 171.050781 215.765625 171.179688 209.226562 169.84375 Z M 202.875 182.796875 C 205.609375 180.257812 212.71875 179.113281 212.71875 179.113281 L 213.289062 175.558594 L 210.621094 177.335938 C 205.164062 178.351562 202.875 182.796875 202.875 182.796875 Z M 227.789062 184.847656 L 228.5 185.066406 C 229.664062 181.226562 233.535156 181.566406 233.695312 181.578125 L 233.769531 180.839844 C 233.726562 180.832031 229.128906 180.414062 227.789062 184.847656 Z M 222.316406 203.484375 C 222.21875 203.566406 212.542969 211.859375 207.714844 213.558594 L 207.957031 214.257812 C 212.925781 212.519531 222.398438 204.390625 222.800781 204.046875 Z M 213.164062 192.097656 C 209.902344 194.476562 200.429688 201.105469 195.816406 201.441406 C 196.476562 202.449219 198.507812 204.46875 203.515625 202.6875 C 208.621094 200.875 211.933594 194.757812 213.164062 192.097656 Z M 203.765625 203.390625 C 202.265625 203.921875 201.007812 204.132812 199.945312 204.132812 C 196.007812 204.132812 194.859375 201.242188 194.847656 201.203125 L 194.640625 200.65625 L 195.226562 200.699219 C 195.308594 200.707031 195.398438 200.707031 195.484375 200.707031 C 200.515625 200.707031 213.691406 190.78125 213.828125 190.679688 L 214.378906 190.265625 C 213.324219 189.765625 212.550781 189.179688 212.492188 189.132812 L 212.945312 188.542969 C 212.96875 188.558594 215.382812 190.386719 217.320312 190.210938 L 217.386719 190.953125 C 217.277344 190.964844 217.167969 190.96875 217.054688 190.96875 C 216.242188 190.96875 215.402344 190.714844 214.667969 190.394531 L 214.402344 191.109375 C 214.25 191.507812 210.640625 200.949219 203.765625 203.390625 Z M 201.0625 190.078125 L 197.699219 189.125 L 197.898438 188.40625 L 201.265625 189.359375 L 201.0625 190.078125 " fill-opacity="1" fill-rule="nonzero"/><g clip-path="url(#id3)"><path fill="rgb(100%, 100%, 100%)" d="M 355.371094 286.273438 L 268.199219 310.613281 C 264.578125 311.625 260.992188 308.882812 261.023438 305.121094 L 261.578125 228.53125 C 261.597656 225.894531 263.433594 223.621094 266.003906 223.046875 L 357.222656 202.738281 C 360.902344 201.921875 364.335938 204.859375 364.097656 208.617188 L 359.496094 281.183594 C 359.34375 283.582031 357.691406 285.625 355.371094 286.273438 " fill-opacity="1" fill-rule="nonzero"/></g><path fill="rgb(6.269836%, 5.879211%, 5.099487%)" d="M 329.503906 262.410156 C 329.3125 262.410156 329.117188 262.429688 328.921875 262.472656 L 306.101562 267.601562 C 304.890625 267.875 304.046875 268.929688 304.046875 270.167969 L 304.046875 289 C 304.046875 289.824219 304.421875 290.582031 305.070312 291.085938 C 305.722656 291.589844 306.558594 291.753906 307.351562 291.546875 L 329.644531 285.632812 C 330.761719 285.335938 331.566406 284.320312 331.597656 283.164062 L 332.125 265.121094 C 332.148438 264.300781 331.804688 263.53125 331.171875 263.011719 C 330.691406 262.617188 330.105469 262.410156 329.503906 262.410156 Z M 306.667969 292.382812 C 305.9375 292.382812 305.21875 292.140625 304.617188 291.679688 C 303.78125 291.03125 303.300781 290.058594 303.300781 289 L 303.300781 270.167969 C 303.300781 268.574219 304.382812 267.222656 305.9375 266.875 L 328.757812 261.746094 C 329.78125 261.519531 330.835938 261.765625 331.644531 262.4375 C 332.457031 263.101562 332.90625 264.089844 332.871094 265.140625 L 332.34375 283.183594 C 332.300781 284.671875 331.269531 285.972656 329.835938 286.351562 L 307.546875 292.265625 C 307.253906 292.34375 306.960938 292.382812 306.667969 292.382812 " fill-opacity="1" fill-rule="nonzero"/><path fill="rgb(100%, 100%, 100%)" d="M 349.007812 320.78125 L 303.554688 337.828125 C 302.5 338.222656 301.328125 338.148438 300.332031 337.621094 L 286.894531 330.527344 C 283.804688 328.898438 284.210938 324.347656 287.542969 323.289062 L 335.957031 307.921875 C 336.953125 307.609375 338.03125 307.699219 338.960938 308.175781 L 349.433594 313.59375 C 352.464844 315.160156 352.203125 319.582031 349.007812 320.78125 " fill-opacity="1" fill-rule="nonzero"/><g clip-path="url(#id4)"><path fill="rgb(6.269836%, 5.879211%, 5.099487%)" d="M 266.671875 307.691406 C 266.667969 306.957031 266.484375 233.679688 266.671875 230.675781 C 266.835938 228.0625 268.628906 227.050781 268.898438 226.914062 L 359.707031 206.445312 L 359.539062 205.722656 L 268.695312 226.195312 L 268.617188 226.21875 C 268.519531 226.265625 266.128906 227.394531 265.925781 230.632812 C 265.738281 233.65625 265.917969 304.671875 265.925781 307.695312 Z M 358.46875 202.972656 C 358.082031 202.972656 357.691406 203.015625 357.300781 203.105469 L 266.085938 223.414062 C 263.667969 223.953125 261.964844 226.054688 261.953125 228.53125 L 261.394531 305.125 C 261.382812 306.800781 262.136719 308.34375 263.46875 309.363281 C 264.800781 310.378906 266.484375 310.699219 268.097656 310.253906 L 355.269531 285.914062 C 357.433594 285.308594 358.980469 283.398438 359.125 281.160156 L 363.722656 208.59375 C 363.832031 206.921875 363.160156 205.335938 361.886719 204.242188 C 360.914062 203.414062 359.710938 202.972656 358.46875 202.972656 Z M 266.660156 311.199219 C 265.359375 311.199219 264.085938 310.773438 263.015625 309.953125 C 261.496094 308.792969 260.636719 307.03125 260.648438 305.121094 L 261.207031 228.527344 C 261.222656 225.703125 263.167969 223.300781 265.921875 222.683594 L 357.140625 202.371094 C 359.007812 201.957031 360.914062 202.433594 362.371094 203.679688 C 363.828125 204.921875 364.59375 206.730469 364.46875 208.644531 L 359.871094 281.207031 C 359.707031 283.765625 357.941406 285.945312 355.472656 286.632812 L 268.300781 310.972656 C 267.757812 311.121094 267.207031 311.199219 266.660156 311.199219 " fill-opacity="1" fill-rule="nonzero"/></g><path fill="rgb(6.269836%, 5.879211%, 5.099487%)" d="M 302.878906 334.863281 L 287.292969 326.5 L 286.941406 327.160156 L 302.527344 335.523438 Z M 336.933594 308.113281 C 336.644531 308.136719 336.355469 308.1875 336.070312 308.277344 L 287.65625 323.648438 C 286.257812 324.085938 285.308594 325.269531 285.179688 326.726562 C 285.050781 328.183594 285.773438 329.515625 287.070312 330.199219 L 300.503906 337.292969 C 301.40625 337.765625 302.472656 337.835938 303.421875 337.476562 L 348.875 320.429688 C 350.214844 319.929688 351.097656 318.730469 351.183594 317.304688 C 351.269531 315.878906 350.535156 314.582031 349.261719 313.925781 L 338.789062 308.507812 C 338.207031 308.207031 337.570312 308.078125 336.933594 308.113281 Z M 302.441406 338.441406 C 301.660156 338.488281 300.867188 338.324219 300.160156 337.953125 L 286.71875 330.859375 C 285.15625 330.03125 284.28125 328.421875 284.4375 326.660156 C 284.59375 324.898438 285.742188 323.46875 287.429688 322.933594 L 335.84375 307.566406 C 336.941406 307.21875 338.109375 307.316406 339.132812 307.847656 L 349.605469 313.261719 C 351.140625 314.058594 352.03125 315.621094 351.929688 317.347656 C 351.828125 319.074219 350.757812 320.523438 349.136719 321.128906 L 303.683594 338.175781 C 303.28125 338.324219 302.863281 338.417969 302.441406 338.441406 " fill-opacity="1" fill-rule="nonzero"/><path fill="rgb(100%, 100%, 100%)" d="M 325.28125 275.09375 L 328.25 281.449219 C 328.402344 281.78125 328.480469 282.148438 328.480469 282.515625 L 328.480469 315.664062 C 328.480469 316.753906 327.789062 317.714844 326.757812 318.058594 L 316.734375 321.402344 C 315.070312 321.953125 313.363281 320.6875 313.417969 318.933594 L 314.382812 285.832031 C 314.394531 285.472656 314.324219 285.113281 314.1875 284.785156 L 311.882812 279.28125 C 311.28125 277.851562 312.101562 276.226562 313.609375 275.859375 L 322.402344 273.710938 C 323.570312 273.425781 324.773438 274.003906 325.28125 275.09375 " fill-opacity="1" fill-rule="nonzero"/><path fill="rgb(6.269836%, 5.879211%, 5.099487%)" d="M 322.492188 274.070312 L 313.695312 276.21875 C 313.085938 276.367188 312.570312 276.777344 312.285156 277.339844 C 312.003906 277.902344 311.980469 278.558594 312.226562 279.136719 L 314.53125 284.640625 C 314.691406 285.019531 314.765625 285.425781 314.753906 285.84375 L 313.789062 318.945312 C 313.769531 319.65625 314.082031 320.308594 314.65625 320.734375 C 315.226562 321.160156 315.941406 321.269531 316.617188 321.046875 L 326.644531 317.703125 C 327.519531 317.410156 328.109375 316.59375 328.109375 315.664062 L 328.109375 282.515625 C 328.109375 282.195312 328.042969 281.890625 327.910156 281.605469 L 324.945312 275.253906 C 324.515625 274.324219 323.484375 273.832031 322.492188 274.070312 Z M 315.925781 321.90625 C 315.316406 321.90625 314.71875 321.710938 314.210938 321.332031 C 313.441406 320.757812 313.015625 319.882812 313.042969 318.921875 L 314.007812 285.820312 C 314.015625 285.511719 313.960938 285.210938 313.84375 284.925781 L 311.539062 279.425781 C 311.207031 278.644531 311.238281 277.761719 311.621094 277.003906 C 312.003906 276.246094 312.695312 275.695312 313.519531 275.496094 L 322.3125 273.347656 C 323.644531 273.027344 325.039062 273.691406 325.621094 274.9375 L 328.582031 281.289062 C 328.765625 281.675781 328.855469 282.089844 328.855469 282.515625 L 328.855469 315.664062 C 328.855469 316.914062 328.0625 318.015625 326.878906 318.410156 L 316.851562 321.757812 C 316.546875 321.855469 316.234375 321.90625 315.925781 321.90625 " fill-opacity="1" fill-rule="nonzero"/></svg>